<?xml version="1.0" standalone="no"?>
<!DOCTYPE svg PUBLIC "-//W3C//DTD SVG 20010904//EN"
 "http://www.w3.org/TR/2001/REC-SVG-20010904/DTD/svg10.dtd">
<svg version="1.0" xmlns="http://www.w3.org/2000/svg"
 width="700.000000pt" height="700.000000pt" viewBox="0 0 700.000000 700.000000"
 preserveAspectRatio="xMidYMid meet">
<metadata>
Created by potrace 1.11, written by Peter Selinger 2001-2013
</metadata>
<g transform="translate(0.000000,700.000000) scale(0.100000,-0.100000)"
fill="#000000" stroke="none">
<path d="M3285 6994 c-203 -20 -276 -28 -375 -45 -610 -105 -1195 -376 -1665
-772 -95 -81 -310 -294 -394 -392 -418 -484 -695 -1073 -800 -1700 -38 -223
-46 -327 -46 -585 0 -397 46 -695 162 -1064 l47 -148 51 6 c76 9 395 -11 557
-34 781 -113 1474 -470 2029 -1046 303 -314 558 -706 720 -1107 l43 -108 86 6
c619 45 1142 211 1651 527 360 222 692 528 958 882 323 430 549 960 640 1501
38 223 46 327 46 585 0 258 -8 362 -46 585 -105 627 -381 1213 -799 1700 -43
50 -87 98 -98 108 -23 21 -19 28 -53 -105 -35 -145 -111 -343 -195 -509 -199
-398 -673 -1028 -1170 -1554 -130 -138 -307 -304 -348 -327 -7 -4 -76 35 -173
98 l-161 105 78 152 c119 230 171 373 173 473 1 85 -47 97 -139 35 -94 -63
-259 -237 -378 -399 -21 -29 -42 -52 -47 -52 -5 0 -90 52 -189 116 l-180 117
6 36 c11 60 91 286 164 461 258 626 652 1326 946 1685 129 158 376 388 487
453 15 9 27 19 27 23 0 11 -156 73 -309 123 -222 73 -435 120 -681 151 -117
15 -536 28 -625 19z m309 -579 c20 -31 87 -64 131 -65 24 -1 20 -4 -23 -15
-28 -8 -63 -22 -77 -31 -29 -19 -65 -89 -66 -130 -1 -23 -5 -17 -19 29 -27 87
-53 110 -145 133 -42 10 -45 12 -19 13 71 2 146 59 160 119 15 66 17 68 29 20
6 -25 19 -58 29 -73z m-2050 -705 c9 -56 59 -104 128 -121 l53 -13 -43 -7
c-81 -15 -127 -63 -148 -154 -7 -29 -7 -29 -15 15 -15 76 -63 125 -139 138
l-45 8 51 13 c75 18 134 84 134 151 0 35 17 13 24 -30z m1116 -435 c22 -36 70
-63 128 -73 l37 -6 -43 -8 c-88 -15 -149 -81 -153 -163 l-1 -30 -10 35 c-29
101 -57 132 -138 154 -33 9 -45 15 -30 16 38 1 104 34 127 64 12 14 27 50 34
79 l13 52 8 -43 c4 -24 16 -58 28 -77z m3657 -810 c21 -38 60 -65 110 -77 l52
-12 -52 -14 c-76 -19 -108 -54 -133 -142 -10 -38 -12 -41 -13 -16 -1 41 -37
111 -67 131 -14 9 -47 21 -74 28 l-49 11 50 13 c27 7 60 20 74 29 29 19 65 89
66 130 1 25 3 22 13 -16 7 -25 18 -54 23 -65z m-5457 -401 c23 -31 63 -54 111
-62 l44 -8 -53 -13 c-72 -18 -115 -61 -133 -133 l-13 -53 -8 44 c-13 78 -48
115 -133 143 -40 13 -45 16 -22 17 42 2 105 38 128 74 10 18 22 50 26 72 l7
40 15 -50 c9 -28 23 -60 31 -71z m2404 -540 l135 -86 -74 -141 c-152 -292
-215 -511 -159 -558 23 -19 79 -1 141 45 79 58 221 208 322 339 45 59 84 107
87 107 6 0 264 -172 268 -179 11 -19 -272 -383 -460 -591 -526 -580 -919 -825
-1021 -637 -25 45 -25 240 0 357 74 349 291 873 536 1297 42 73 79 133 83 133
4 0 68 -39 142 -86z m-1656 -415 c15 -38 67 -78 120 -91 l45 -11 -45 -12 c-25
-6 -58 -19 -73 -29 -31 -20 -64 -87 -66 -131 -1 -24 -4 -20 -15 24 -8 29 -22
64 -30 77 -19 28 -89 64 -130 65 -22 1 -15 5 33 20 74 23 105 56 124 131 l14
52 6 -34 c3 -19 11 -47 17 -61z m4906 -596 c22 -20 50 -35 75 -39 41 -7 47
-24 9 -24 -11 0 -38 -10 -59 -22 -41 -23 -79 -84 -79 -127 0 -12 -4 -19 -10
-16 -5 3 -10 15 -10 26 0 31 -36 94 -65 113 -15 10 -42 20 -61 23 -40 7 -56
23 -23 23 47 0 107 39 128 84 12 23 21 49 21 57 0 36 15 26 26 -18 8 -32 24
-58 48 -80z m-1998 -1224 c22 -38 92 -79 139 -80 24 -1 20 -4 -24 -15 -29 -8
-64 -22 -77 -30 -28 -19 -64 -89 -65 -130 -1 -23 -5 -17 -19 30 -24 76 -50
102 -124 126 -42 13 -53 19 -34 19 82 2 139 56 164 156 l7 30 7 -36 c3 -20 15
-51 26 -70z"/>
<path d="M5616 6989 c-139 -18 -381 -96 -484 -156 -10 -5 101 -147 173 -222
182 -190 480 -347 714 -377 l54 -7 -7 134 c-7 158 -27 280 -63 393 -72 229
-134 267 -387 235z"/>
<path d="M4853 6125 c-183 -50 -331 -197 -387 -384 -21 -71 -21 -220 0 -292
69 -236 285 -399 527 -399 348 1 611 332 532 669 -46 194 -202 355 -395 406
-69 18 -208 18 -277 0z m284 -238 c67 -35 120 -89 152 -157 34 -73 36 -191 4
-262 -30 -66 -104 -141 -166 -169 -78 -35 -192 -33 -269 3 -76 35 -141 103
-168 176 -32 83 -25 196 15 271 36 66 101 124 169 151 74 29 191 23 263 -13z"/>
</g>
</svg>
